<svg xmlns="http://www.w3.org/2000/svg" width="31.935" height="29.119" viewBox="0 0 31.935 29.119"><defs><style>.a{fill:#0e101a;}.b{fill:#04c494;}</style></defs><path class="a" d="M1521.968,2009a10.714,10.714,0,0,0-10.68,10.68v6.293a.5.5,0,0,1-.471.494,5.11,5.11,0,0,0-4.817,5.086v.8h31.935v-.8a5.1,5.1,0,0,0-4.789-5.082.5.5,0,0,1-.5-.5v-6.293A10.713,10.713,0,0,0,1521.968,2009Z" transform="translate(-1506 -2009)"/><path class="b" d="M4157.359,7291h-6.979a2.381,2.381,0,1,0,0,4.762h6.979a2.381,2.381,0,1,0,0-4.762Z" transform="translate(-4137.853 -7266.643)"/></svg>