<svg xmlns="http://www.w3.org/2000/svg" width="18.865" height="22.009" viewBox="0 0 18.865 22.009"><defs><style>.a{fill:#fff;}</style></defs><g transform="translate(0.118 -1)"><g transform="translate(-0.118 1)"><path class="a" d="M55.019,0H40.346a2.1,2.1,0,0,0-2.1,2.1V16.769a2.1,2.1,0,0,0,2.1,2.1h4.192l3.144,3.144,3.144-3.144h4.192a2.1,2.1,0,0,0,2.1-2.1V2.1A2.1,2.1,0,0,0,55.019,0ZM48.731,16.769h-2.1v-2.1h2.1Zm2.2-8.07-.943.943a3.264,3.264,0,0,0-1.258,2.935h-2.1v-.524a3.806,3.806,0,0,1,1.258-2.935L49.15,7.756a1.759,1.759,0,0,0,.629-1.467,2.1,2.1,0,0,0-4.192,0h-2.1a4.192,4.192,0,0,1,8.384,0A3.817,3.817,0,0,1,50.931,8.7Z" transform="translate(-38.25 0)"/></g></g></svg>