<svg xmlns="http://www.w3.org/2000/svg" width="26.324" height="24.104" viewBox="0 0 26.324 24.104"><defs><style>.a{fill:#fff;fill-rule:evenodd;}</style></defs><g transform="translate(-45.82 -77.662)"><g transform="translate(45.82 77.662)"><path class="a" d="M46.4,82.231l9.234-4.425a1.017,1.017,0,0,1,1.537.873v1.329H64.04a1.016,1.016,0,0,1,1.016,1.016v4.234a1.016,1.016,0,0,1-2.032,0V82.04H57.171V97.392h5.853V94.174a1.016,1.016,0,0,1,2.032,0v4.234a1.016,1.016,0,0,1-1.016,1.016H57.171l0,1.329a1.013,1.013,0,0,1-1.449.913l-9.234-4.425a1.017,1.017,0,0,1-.664-.953l0-13.144A1.012,1.012,0,0,1,46.4,82.231Zm13.852,6.2a1.286,1.286,0,0,0,0,2.571h7.5L66.3,92.456a1.286,1.286,0,0,0,1.818,1.818L71.76,90.63a1.285,1.285,0,0,0,0-1.832l-3.643-3.643A1.286,1.286,0,0,0,66.3,86.973l1.456,1.456Z" transform="translate(-45.82 -77.662)"/></g></g></svg>