<svg xmlns="http://www.w3.org/2000/svg" width="16.704" height="22.726" viewBox="0 0 16.704 22.726"><defs><style>.a{fill:#fff;}</style></defs><path class="a" d="M185.716,64.884V49.692c0-.027,0-.051,0-.075a1.587,1.587,0,0,0-.9-1.351,2.045,2.045,0,0,0-.882-.16h-1.944c0-.243,0-.517,0-.775V47.29a.653.653,0,0,0-.182-.437.563.563,0,0,0-.262-.153.282.282,0,0,0-.044-.01v0a.575.575,0,0,0-.09-.015h0s0,0,0,0,0,0,0-.007-.022.01-.032-.015h-2.053a2.93,2.93,0,0,0-.044-.413,1.923,1.923,0,0,0-1.064-1.334,1.985,1.985,0,0,0-1.735.036,1.932,1.932,0,0,0-.962,1.171,2.221,2.221,0,0,0-.075.539h-1.3c-.245,0-.5,0-.741.01a.648.648,0,0,0-.639.641c0,.08-.007.168-.007.25v.561c-.7,0-1.414,0-2.123,0a1.6,1.6,0,0,0-1.6,1.587c0,.117,0,.231,0,.347V65.033a3.287,3.287,0,0,0,.2,1.6,1.629,1.629,0,0,0,1.458.819h12.9c.172,0,.347-.007.52-.007a1.6,1.6,0,0,0,1.584-1.28A8.6,8.6,0,0,0,185.716,64.884ZM176.683,46.6c0-.012,0-.022,0-.034a.615.615,0,0,1,.01-.066l.007-.029s0,0,0-.007,0-.01,0-.017a.066.066,0,0,0,0-.022h.007s0,0,0-.007,0,0,0,0h0s0-.01,0-.012l.007-.019s0,0,0,0,0,0,0,0,0-.007,0-.01h0s.007,0,.007,0a.034.034,0,0,0,.007-.01s0,0,0,0a0,0,0,0,1,0,0,0,0,0,0,1,0,0s0-.007,0-.01a0,0,0,0,1,0,0s0-.007,0-.01,0,0,0-.007l.01-.017h0l.007-.015.015-.022a.108.108,0,0,1,.019-.027c.007-.007.012-.017.019-.024l0,0c.007-.007.012-.017.019-.024s.017-.017.024-.027a.679.679,0,0,1,.267-.163l.012,0,.012,0h0l.053-.012s.007,0,.012,0a.5.5,0,0,1,.121,0h0a.487.487,0,0,1,.1,0c.01,0,.019,0,.027,0h0s.007,0,.01.007.01-.007.015.017h0a.338.338,0,0,1,.126.034.031.031,0,0,0,.015,0,.6.6,0,0,1,.189.129l.017.017.027.029a.677.677,0,0,1,.136.282.258.258,0,0,1,.012.046c0,.012,0,.024.007.039s.007,0,.007.007.007.007.007.012v.046c0,.007,0,.015,0,.022s0,.012,0,.019,0,.012,0,.019a.009.009,0,0,1,0,0v0s0,.01,0,.015l-.007.034s0,.01,0,.015-.007.022-.01.032l-.007.027s0,.012,0,.017a.009.009,0,0,1,0,.007s0,0,0,.007v.01h0c0,.007-.01.015-.012.019a.005.005,0,0,1,0,0l-.007.015-.015.032a.184.184,0,0,1-.017.029l-.007.012a.4.4,0,0,1-.027.041.065.065,0,0,1-.012.015.4.4,0,0,1-.044.046c-.01.012-.01.024-.034.036h0c0,.01-.017.017-.027.027l-.027.022,0,0a.347.347,0,0,1-.032.022l-.01.007s-.012.007-.017.012h0a.522.522,0,0,1-.063.034l-.017.007-.017.007h0l-.007,0-.007,0-.017.007-.019.007-.015,0a.569.569,0,0,1-.2.029h-.041a.031.031,0,0,1-.015,0h-.01a.015.015,0,0,1-.01,0,.022.022,0,0,1-.012,0l-.019,0-.012,0a.6.6,0,0,1-.07-.017c-.007,0-.012-.01-.019-.012s-.017-.015-.027-.015h0l0,0-.007,0v0h0s0,0-.01,0,0,0,0,0,0,0,0,0h0l-.007,0-.012,0-.012-.007h0s0,0-.01,0,0,0-.01,0l-.012-.007-.007,0L177,47.217l-.007,0a.009.009,0,0,1,0,0s0,0,0,0l0,0a0,0,0,0,1,0,0l-.012-.007-.007,0a.563.563,0,0,1-.046-.034.221.221,0,0,1-.024-.022l-.01-.01s-.007,0-.01-.01l0,0,0,0-.012-.012,0,0,0,0,0,0,0,0-.007-.007s-.007-.007-.01-.012a.109.109,0,0,1-.019-.027c0-.007-.012-.015-.017-.022a.31.31,0,0,1-.036-.061.114.114,0,0,1-.012-.024.018.018,0,0,1,0-.012c0-.007-.007-.012-.01-.019s-.007-.019-.012-.029,0-.007,0-.01-.007-.017-.01-.027a.045.045,0,0,1,0-.017s0,0,0-.01a.031.031,0,0,1,0-.015.031.031,0,0,1,0-.015s0-.012,0-.017,0-.015,0-.022,0-.022,0-.034v0s0,0,0-.007,0-.017,0-.027h0c0-.012,0-.022,0-.034A.039.039,0,0,0,176.683,46.6Zm-2.262,16.28h-2.208a.741.741,0,1,1,0-1.482h2.208a.741.741,0,1,1,0,1.482Zm8.392-1.426-.384.384q-.82.824-1.642,1.645l-1.035,1.035a.763.763,0,0,1-1.062,0q-.7-.7-1.409-1.407a.75.75,0,1,1,1.062-1.059l.877.877c.5-.5,1-1,1.5-1.5l1.035-1.035a.751.751,0,1,1,1.062,1.062Zm-.284-3.127s-.012,0-.017,0c-.418.01-.838.007-1.259.007h-9.04a.756.756,0,0,1,0-1.511l.017,0c.418-.01.838,0,1.259,0h9.043a.747.747,0,1,1,0,1.494Zm0-4.577-.017,0c-.418.007-.838,0-1.259,0h-9.04a.75.75,0,1,1,0-1.5l.017,0c.418-.01.838,0,1.259,0h9.043a.756.756,0,0,1,0,1.511Z" transform="translate(-169.025 -44.722)"/></svg>