<svg xmlns="http://www.w3.org/2000/svg" width="19.05" height="21.341" viewBox="0 0 19.05 21.341"><defs><style>.a{fill:#fff;}</style></defs><path class="a" d="M25.692,28.969l2.592,4.446a.64.64,0,0,1-.551.491,13.881,13.881,0,0,1-1.448.066,15.027,15.027,0,0,1-5.554-.991.642.642,0,0,1-.4-.594v-2.3h.642A9.148,9.148,0,0,0,25.692,28.969ZM26.949,28a8.069,8.069,0,0,0,2.1-5.954c0-.576.238-.617.63-.617H33.55v1.248l2.066,3.857a.643.643,0,0,1-.567.946h-1.5v2.371a2.466,2.466,0,0,1-2.463,2.463H28.965L26.624,28.3C26.735,28.2,26.844,28.1,26.949,28Zm4.429-3.986a.713.713,0,1,0-.713-.713A.713.713,0,0,0,31.378,24.014Zm-6.1-11.365c.269-.012.534-.018.794-.018,5.541,0,9.107,2.763,9.107,7.26,0,.355-.288.4-.642.4H29.681a1.618,1.618,0,0,0-1.772,1.759c0,4.42-2.3,6.795-6.653,6.894-.094,0-.184.009-.28.009H19.295a.642.642,0,0,1-.537-.29,13.362,13.362,0,0,1-2.115-7.289C16.642,19.31,16.832,13.038,25.277,12.649Zm-.913,13.81a.713.713,0,1,0-.713-.713A.713.713,0,0,0,24.364,26.459Z" transform="translate(-16.642 -12.631)"/></svg>