<svg xmlns="http://www.w3.org/2000/svg" width="20.392" height="20.91" viewBox="0 0 20.392 20.91"><defs><style>.a{fill:#fff;}</style></defs><g transform="translate(82.213 -130.52)"><path class="a" d="M26.523,12.131l-2-3.458a1.2,1.2,0,0,0-.646-.537,1.085,1.085,0,0,0-.87.082l-1.3.56A8.461,8.461,0,0,0,19.844,7.7L19.7,6.22a.677.677,0,0,0,0-.07,1.2,1.2,0,0,0-1.15-.98H14.538a1.167,1.167,0,0,0-1.167,1.052L13.159,7.7a8.471,8.471,0,0,0-1.885,1.078L9.955,8.164,9.922,8.15a1.192,1.192,0,0,0-.856-.012,1.129,1.129,0,0,0-.632.576l-1.979,3.4a1.2,1.2,0,0,0,.329,1.577l1.183.861a7.7,7.7,0,0,0,0,2.165l-1.19.866a1.192,1.192,0,0,0-.322,1.552l2,3.447a1.2,1.2,0,0,0,.646.537,1.083,1.083,0,0,0,.87-.082l1.3-.56a8.473,8.473,0,0,0,1.867,1.078l.145,1.479v.07a1.2,1.2,0,0,0,1.15.98h4.009A1.167,1.167,0,0,0,19.606,25l.149-1.44a8.478,8.478,0,0,0,1.867-1.071l1.311.6.033.014a1.19,1.19,0,0,0,1.477-.5L26.429,19.2a1.2,1.2,0,0,0-.308-1.561l-1.113-.9a7.7,7.7,0,0,0,0-2.191l1.19-.866A1.19,1.19,0,0,0,26.523,12.131ZM16.489,20.2a4.567,4.567,0,1,1,4.567-4.567A4.567,4.567,0,0,1,16.489,20.2Z" transform="translate(-88.502 125.35)"/></g></svg>