<svg xmlns="http://www.w3.org/2000/svg" width="24.169" height="20.686" viewBox="0 0 24.169 20.686"><defs><style>.a{fill:#fff;}.b{fill:#f4f6f8;}</style></defs><g transform="translate(-7.461 -7)"><circle class="a" cx="4.226" cy="4.226" r="4.226" transform="translate(19.006 7)"/><circle class="a" cx="3.151" cy="3.151" r="3.151" transform="translate(10.59 9.039)"/><path class="a" d="M16.816,48.935l.334-.334a5.709,5.709,0,0,0-3.411-1c-3.522,0-5.6,2.335-6.265,6.339-.259,1.557,2.817,2.15,6.265,2.15a.723.723,0,0,1,.037-.3A12.387,12.387,0,0,1,16.816,48.935Z" transform="translate(0.002 -31.147)"/><path class="b" d="M35.746,58.707c-4.634,0-8.712-.816-8.378-2.854.89-5.338,3.67-8.452,8.378-8.452s7.488,3.151,8.378,8.452C44.457,57.891,40.38,58.707,35.746,58.707Z" transform="translate(-12.514 -31.021)"/></g></svg>